<svg xmlns="http://www.w3.org/2000/svg" viewBox="0 0 1024 1024">
  <defs>
    <linearGradient id="shell" x1="116" y1="74" x2="904" y2="946" gradientUnits="userSpaceOnUse">
      <stop stop-color="#14283C"/>
      <stop offset=".48" stop-color="#07111D"/>
      <stop offset="1" stop-color="#02070D"/>
    </linearGradient>
    <radialGradient id="blue-haze" cx="0" cy="0" r="1" gradientTransform="translate(282 292) rotate(58) scale(483)">
      <stop stop-color="#2C9BFF" stop-opacity=".3"/>
      <stop offset="1" stop-color="#2C9BFF" stop-opacity="0"/>
    </radialGradient>
    <radialGradient id="orange-haze" cx="0" cy="0" r="1" gradientTransform="translate(767 752) rotate(-126) scale(448)">
      <stop stop-color="#E99567" stop-opacity=".28"/>
      <stop offset="1" stop-color="#E99567" stop-opacity="0"/>
    </radialGradient>
    <linearGradient id="blue" x1="177" y1="180" x2="521" y2="838" gradientUnits="userSpaceOnUse">
      <stop stop-color="#9EEBFF"/>
      <stop offset=".28" stop-color="#4CC5FF"/>
      <stop offset=".57" stop-color="#1677EA"/>
      <stop offset="1" stop-color="#092E6B"/>
    </linearGradient>
    <linearGradient id="orange" x1="508" y1="172" x2="854" y2="845" gradientUnits="userSpaceOnUse">
      <stop stop-color="#FFE6BE"/>
      <stop offset=".3" stop-color="#F4AF76"/>
      <stop offset=".58" stop-color="#D97757"/>
      <stop offset="1" stop-color="#71301D"/>
    </linearGradient>
    <linearGradient id="silk-blue" x1="0" y1="0" x2="1" y2="1">
      <stop stop-color="white" stop-opacity=".92"/>
      <stop offset=".35" stop-color="white" stop-opacity=".08"/>
      <stop offset=".65" stop-color="#A8EFFF" stop-opacity=".48"/>
      <stop offset="1" stop-color="white" stop-opacity="0"/>
    </linearGradient>
    <linearGradient id="silk-orange" x1="0" y1="0" x2="1" y2="1">
      <stop stop-color="white" stop-opacity=".9"/>
      <stop offset=".36" stop-color="white" stop-opacity=".06"/>
      <stop offset=".68" stop-color="#FFE0B2" stop-opacity=".5"/>
      <stop offset="1" stop-color="white" stop-opacity="0"/>
    </linearGradient>
    <filter id="shadow" x="-30%" y="-30%" width="160%" height="160%">
      <feGaussianBlur stdDeviation="18"/>
    </filter>
  </defs>
  <rect x="52" y="52" width="920" height="920" rx="228" fill="url(#shell)"/>
  <rect x="70" y="70" width="884" height="884" rx="210" fill="none" stroke="white" stroke-opacity=".13" stroke-width="4"/>
  <rect x="91" y="91" width="842" height="842" rx="193" fill="none" stroke="white" stroke-opacity=".05" stroke-width="2"/>
  <rect x="52" y="52" width="920" height="920" rx="228" fill="url(#blue-haze)"/>
  <rect x="52" y="52" width="920" height="920" rx="228" fill="url(#orange-haze)"/>
  <path d="M467 273c-75-58-190-41-246 42-56 84-56 310 0 394 56 83 171 100 246 42" fill="none" stroke="#006DFF" stroke-opacity=".22" stroke-width="114" stroke-linecap="round" filter="url(#shadow)"/>
  <path d="M808 273c-75-58-190-41-246 42-56 84-56 310 0 394 56 83 171 100 246 42" fill="none" stroke="#D97757" stroke-opacity=".2" stroke-width="114" stroke-linecap="round" filter="url(#shadow)"/>
  <path d="M467 273c-75-58-190-41-246 42-56 84-56 310 0 394 56 83 171 100 246 42" fill="none" stroke="url(#blue)" stroke-width="104" stroke-linecap="round"/>
  <path d="M808 273c-75-58-190-41-246 42-56 84-56 310 0 394 56 83 171 100 246 42" fill="none" stroke="url(#orange)" stroke-width="104" stroke-linecap="round"/>
  <path d="M450 284c-66-46-159-25-199 44" fill="none" stroke="url(#silk-blue)" stroke-width="18" stroke-linecap="round"/>
  <path d="M791 284c-66-46-159-25-199 44" fill="none" stroke="url(#silk-orange)" stroke-width="18" stroke-linecap="round"/>
  <circle cx="500" cy="512" r="10" fill="#72D8FF" opacity=".7"/>
  <circle cx="530" cy="512" r="10" fill="#EEA06E" opacity=".7"/>
</svg>
